# xmcd CD database file
#
# Track frame offsets:
#	150
#	10875
#	32922
#	44775
#	66922
#	89555
#	101997
#	113880
#	124585
#	140797
#	164132
#	165805
#	179540
#	194187
#	220782
#	238415
#	250622
#
# Disc length: 3492 seconds
#
# Revision: 1
# Processed by: cddbd v1.4PL0 Copyright (c) Steve Scherf et al.
# Submitted via: CDex 1.50beta10
#
DISCID=0a0da211
DTITLE=Jolly Jumper and Big Moe - Searching the desert for the BLUES
DYEAR=1999
DGENRE=Blues
TTITLE0=Police Dog Blues
TTITLE1=Searching the desert for the BLUES
TTITLE2=Communication Blues
TTITLE3=Ramble around my throne
TTITLE4=Hell Station Blues
TTITLE5=Chicken Breath
TTITLE6=Keep your hands off her
TTITLE7=Make me a palett on your floor
TTITLE8=Mistreatin' Mama
TTITLE9=Hesitation Blues
TTITLE10=The Taj Thing
TTITLE11=From four until late
TTITLE12=I want you to know
TTITLE13=I keep on drinking
TTITLE14=Cruisin'
TTITLE15=Shake that thing
TTITLE16=Blues for our holy Fathers
EXTD=YEAR: 1999
EXTT0=
EXTT1=
EXTT2=
EXTT3=
EXTT4=
EXTT5=
EXTT6=
EXTT7=
EXTT8=
EXTT9=
EXTT10=
EXTT11=
EXTT12=
EXTT13=
EXTT14=
EXTT15=
EXTT16=
PLAYORDER=
